<svg width="703" height="187" viewBox="0 0 703 187" fill="none" xmlns="http://www.w3.org/2000/svg">
<path d="M11.648 139V68.6C11.648 60.8347 13.952 54.648 18.56 50.04C23.168 45.3467 29.7387 43 38.272 43C41.1733 43 43.9467 43.2987 46.592 43.896C49.3227 44.4933 51.6267 45.432 53.504 46.712L48.256 61.176C47.1467 60.408 45.9093 59.8107 44.544 59.384C43.1787 58.9573 41.728 58.744 40.192 58.744C37.2907 58.744 35.0293 59.5973 33.408 61.304C31.872 62.9253 31.104 65.4 31.104 68.728V75.128L31.616 83.704V139H11.648ZM1.024 87.032V71.672H48.768V87.032H1.024ZM90.609 140.024C83.2703 140.024 76.7423 138.488 71.025 135.416C65.393 132.344 60.913 128.163 57.585 122.872C54.3423 117.496 52.721 111.395 52.721 104.568C52.721 97.656 54.3423 91.5547 57.585 86.264C60.913 80.888 65.393 76.7067 71.025 73.72C76.7423 70.648 83.2703 69.112 90.609 69.112C97.8623 69.112 104.348 70.648 110.065 73.72C115.782 76.7067 120.262 80.8453 123.505 86.136C126.748 91.4267 128.369 97.5707 128.369 104.568C128.369 111.395 126.748 117.496 123.505 122.872C120.262 128.163 115.782 132.344 110.065 135.416C104.348 138.488 97.8623 140.024 90.609 140.024ZM90.609 123.64C93.937 123.64 96.9237 122.872 99.569 121.336C102.214 119.8 104.305 117.624 105.841 114.808C107.377 111.907 108.145 108.493 108.145 104.568C108.145 100.557 107.377 97.144 105.841 94.328C104.305 91.512 102.214 89.336 99.569 87.8C96.9237 86.264 93.937 85.496 90.609 85.496C87.281 85.496 84.2943 86.264 81.649 87.8C79.0037 89.336 76.8703 91.512 75.249 94.328C73.713 97.144 72.945 100.557 72.945 104.568C72.945 108.493 73.713 111.907 75.249 114.808C76.8703 117.624 79.0037 119.8 81.649 121.336C84.2943 122.872 87.281 123.64 90.609 123.64ZM174.484 140.024C167.145 140.024 160.617 138.488 154.9 135.416C149.268 132.344 144.788 128.163 141.46 122.872C138.217 117.496 136.596 111.395 136.596 104.568C136.596 97.656 138.217 91.5547 141.46 86.264C144.788 80.888 149.268 76.7067 154.9 73.72C160.617 70.648 167.145 69.112 174.484 69.112C181.737 69.112 188.223 70.648 193.94 73.72C199.657 76.7067 204.137 80.8453 207.38 86.136C210.623 91.4267 212.244 97.5707 212.244 104.568C212.244 111.395 210.623 117.496 207.38 122.872C204.137 128.163 199.657 132.344 193.94 135.416C188.223 138.488 181.737 140.024 174.484 140.024ZM174.484 123.64C177.812 123.64 180.799 122.872 183.444 121.336C186.089 119.8 188.18 117.624 189.716 114.808C191.252 111.907 192.02 108.493 192.02 104.568C192.02 100.557 191.252 97.144 189.716 94.328C188.18 91.512 186.089 89.336 183.444 87.8C180.799 86.264 177.812 85.496 174.484 85.496C171.156 85.496 168.169 86.264 165.524 87.8C162.879 89.336 160.745 91.512 159.124 94.328C157.588 97.144 156.82 100.557 156.82 104.568C156.82 108.493 157.588 111.907 159.124 114.808C160.745 117.624 162.879 119.8 165.524 121.336C168.169 122.872 171.156 123.64 174.484 123.64ZM253.751 140.024C245.644 140.024 239.33 137.976 234.807 133.88C230.284 129.699 228.023 123.512 228.023 115.32V54.904H247.991V115.064C247.991 117.965 248.759 120.227 250.295 121.848C251.831 123.384 253.922 124.152 256.567 124.152C259.724 124.152 262.412 123.299 264.631 121.592L270.007 135.672C267.959 137.123 265.484 138.232 262.583 139C259.767 139.683 256.823 140.024 253.751 140.024ZM217.399 87.032V71.672H265.143V87.032H217.399Z" fill="#7942EE"/>
<path d="M321.92 140.024C316.117 140.024 311.04 138.744 306.688 136.184C302.336 133.624 298.923 129.741 296.448 124.536C294.059 119.245 292.864 112.589 292.864 104.568C292.864 96.4613 294.016 89.8053 296.32 84.6C298.624 79.3947 301.952 75.512 306.304 72.952C310.656 70.392 315.861 69.112 321.92 69.112C328.405 69.112 334.208 70.6053 339.328 73.592C344.533 76.4933 348.629 80.5893 351.616 85.88C354.688 91.1707 356.224 97.4 356.224 104.568C356.224 111.821 354.688 118.093 351.616 123.384C348.629 128.675 344.533 132.771 339.328 135.672C334.208 138.573 328.405 140.024 321.92 140.024ZM281.216 163.832V70.136H300.288V84.216L299.904 104.696L301.184 125.048V163.832H281.216ZM318.464 123.64C321.792 123.64 324.736 122.872 327.296 121.336C329.941 119.8 332.032 117.624 333.568 114.808C335.189 111.907 336 108.493 336 104.568C336 100.557 335.189 97.144 333.568 94.328C332.032 91.512 329.941 89.336 327.296 87.8C324.736 86.264 321.792 85.496 318.464 85.496C315.136 85.496 312.149 86.264 309.504 87.8C306.859 89.336 304.768 91.512 303.232 94.328C301.696 97.144 300.928 100.557 300.928 104.568C300.928 108.493 301.696 111.907 303.232 114.808C304.768 117.624 306.859 119.8 309.504 121.336C312.149 122.872 315.136 123.64 318.464 123.64ZM411.447 69.112C416.908 69.112 421.772 70.2213 426.039 72.44C430.391 74.5733 433.804 77.9013 436.279 82.424C438.754 86.8613 439.991 92.5787 439.991 99.576V139H420.023V102.648C420.023 97.1013 418.786 93.0053 416.311 90.36C413.922 87.7147 410.508 86.392 406.071 86.392C402.914 86.392 400.055 87.0747 397.495 88.44C395.02 89.72 393.058 91.7253 391.607 94.456C390.242 97.1867 389.559 100.685 389.559 104.952V139H369.591V44.024H389.559V89.208L385.079 83.448C387.554 78.84 391.095 75.2987 395.703 72.824C400.311 70.3493 405.559 69.112 411.447 69.112ZM491.359 140.024C484.02 140.024 477.492 138.488 471.775 135.416C466.143 132.344 461.663 128.163 458.335 122.872C455.092 117.496 453.471 111.395 453.471 104.568C453.471 97.656 455.092 91.5547 458.335 86.264C461.663 80.888 466.143 76.7067 471.775 73.72C477.492 70.648 484.02 69.112 491.359 69.112C498.612 69.112 505.098 70.648 510.815 73.72C516.532 76.7067 521.012 80.8453 524.255 86.136C527.498 91.4267 529.119 97.5707 529.119 104.568C529.119 111.395 527.498 117.496 524.255 122.872C521.012 128.163 516.532 132.344 510.815 135.416C505.098 138.488 498.612 140.024 491.359 140.024ZM491.359 123.64C494.687 123.64 497.674 122.872 500.319 121.336C502.964 119.8 505.055 117.624 506.591 114.808C508.127 111.907 508.895 108.493 508.895 104.568C508.895 100.557 508.127 97.144 506.591 94.328C505.055 91.512 502.964 89.336 500.319 87.8C497.674 86.264 494.687 85.496 491.359 85.496C488.031 85.496 485.044 86.264 482.399 87.8C479.754 89.336 477.62 91.512 475.999 94.328C474.463 97.144 473.695 100.557 473.695 104.568C473.695 108.493 474.463 111.907 475.999 114.808C477.62 117.624 479.754 119.8 482.399 121.336C485.044 122.872 488.031 123.64 491.359 123.64ZM584.322 69.112C589.783 69.112 594.647 70.2213 598.914 72.44C603.266 74.5733 606.679 77.9013 609.154 82.424C611.629 86.8613 612.866 92.5787 612.866 99.576V139H592.898V102.648C592.898 97.1013 591.661 93.0053 589.186 90.36C586.797 87.7147 583.383 86.392 578.946 86.392C575.789 86.392 572.93 87.0747 570.37 88.44C567.895 89.72 565.933 91.7253 564.482 94.456C563.117 97.1867 562.434 100.685 562.434 104.952V139H542.466V70.136H561.538V89.208L557.954 83.448C560.429 78.84 563.97 75.2987 568.578 72.824C573.186 70.3493 578.434 69.112 584.322 69.112ZM665.642 140.024C657.791 140.024 650.879 138.488 644.906 135.416C639.018 132.344 634.453 128.163 631.21 122.872C627.967 117.496 626.346 111.395 626.346 104.568C626.346 97.656 627.925 91.5547 631.082 86.264C634.325 80.888 638.719 76.7067 644.266 73.72C649.813 70.648 656.085 69.112 663.082 69.112C669.823 69.112 675.882 70.5627 681.258 73.464C686.719 76.28 691.029 80.376 694.186 85.752C697.343 91.0427 698.922 97.4 698.922 104.824C698.922 105.592 698.879 106.488 698.794 107.512C698.709 108.451 698.623 109.347 698.538 110.2H642.602V98.552H688.042L680.362 102.008C680.362 98.424 679.637 95.3093 678.186 92.664C676.735 90.0187 674.73 87.9707 672.17 86.52C669.61 84.984 666.623 84.216 663.21 84.216C659.797 84.216 656.767 84.984 654.122 86.52C651.562 87.9707 649.557 90.0613 648.106 92.792C646.655 95.4373 645.93 98.5947 645.93 102.264V105.336C645.93 109.091 646.741 112.419 648.362 115.32C650.069 118.136 652.415 120.312 655.402 121.848C658.474 123.299 662.058 124.024 666.154 124.024C669.823 124.024 673.023 123.469 675.754 122.36C678.57 121.251 681.13 119.587 683.434 117.368L694.058 128.888C690.901 132.472 686.933 135.245 682.154 137.208C677.375 139.085 671.871 140.024 665.642 140.024Z" fill="#222222"/>
</svg>
