<svg width="100" height="100" viewBox="0 0 100 100" fill="none" xmlns="http://www.w3.org/2000/svg">
<path d="M18.384 75V36.4154C18.384 32.1594 19.6468 28.7686 22.1723 26.2431C24.6978 23.6708 28.2991 22.3846 32.976 22.3846C34.5662 22.3846 36.0862 22.5483 37.536 22.8757C39.0326 23.2031 40.2954 23.7175 41.3243 24.4191L38.448 32.3465C37.84 31.9255 37.1618 31.5982 36.4135 31.3643C35.6652 31.1305 34.8702 31.0135 34.0283 31.0135C32.4382 31.0135 31.1988 31.4812 30.3102 32.4166C29.4683 33.3052 29.0474 34.6615 29.0474 36.4855V39.9932L29.328 44.6935V75H18.384ZM12.5612 46.5175V38.0991H38.7286V46.5175H12.5612Z" fill="#7942EE"/>
<path d="M66.4898 75.5612C63.3095 75.5612 60.5267 74.8597 58.1415 73.4566C55.7563 72.0535 53.8855 69.9255 52.5292 67.0726C51.2197 64.1729 50.5649 60.5249 50.5649 56.1286C50.5649 51.6855 51.1963 48.0375 52.459 45.1846C53.7218 42.3317 55.5458 40.2037 57.931 38.8006C60.3163 37.3975 63.1692 36.696 66.4898 36.696C70.0443 36.696 73.2246 37.5145 76.0307 39.1514C78.8837 40.7415 81.1286 42.9865 82.7655 45.8862C84.4492 48.7858 85.291 52.2 85.291 56.1286C85.291 60.104 84.4492 63.5415 82.7655 66.4412C81.1286 69.3409 78.8837 71.5858 76.0307 73.176C73.2246 74.7662 70.0443 75.5612 66.4898 75.5612ZM44.1809 88.6098V37.2572H54.6338V44.9742L54.4233 56.1988L55.1249 67.3532V88.6098H44.1809ZM64.5957 66.5815C66.4197 66.5815 68.0332 66.1606 69.4363 65.3188C70.8861 64.4769 72.032 63.2843 72.8738 61.7409C73.7624 60.1508 74.2067 58.28 74.2067 56.1286C74.2067 53.9305 73.7624 52.0597 72.8738 50.5163C72.032 48.9729 70.8861 47.7803 69.4363 46.9385C68.0332 46.0966 66.4197 45.6757 64.5957 45.6757C62.7717 45.6757 61.1347 46.0966 59.6849 46.9385C58.235 47.7803 57.0892 48.9729 56.2473 50.5163C55.4055 52.0597 54.9846 53.9305 54.9846 56.1286C54.9846 58.28 55.4055 60.1508 56.2473 61.7409C57.0892 63.2843 58.235 64.4769 59.6849 65.3188C61.1347 66.1606 62.7717 66.5815 64.5957 66.5815Z" fill="#222222"/>
</svg>
