<svg width="24" height="24" viewBox="0 0 24 24" fill="none" xmlns="http://www.w3.org/2000/svg">
<path fill-rule="evenodd" clip-rule="evenodd" d="M6.55213 0.333801H17.4476C21.4155 0.333801 23.6555 2.5843 23.6671 6.55213V17.4488C23.6671 21.4155 21.4155 23.6671 17.4476 23.6671H6.55213C2.5843 23.6671 0.333801 21.4155 0.333801 17.4488V6.55213C0.333801 2.5843 2.5843 0.333801 6.55213 0.333801ZM12.0576 18.8371C12.5605 18.8371 12.9793 18.4638 13.026 17.9621V6.0738C13.0726 5.71213 12.8988 5.3493 12.5838 5.15213C12.256 4.9538 11.8593 4.9538 11.5455 5.15213C11.2293 5.3493 11.0555 5.71213 11.0893 6.0738V17.9621C11.1488 18.4638 11.5676 18.8371 12.0576 18.8371ZM17.4255 18.8371C17.9155 18.8371 18.3343 18.4638 18.3938 17.9621V14.1355C18.4276 13.761 18.2538 13.4121 17.9376 13.2138C17.6238 13.0155 17.2271 13.0155 16.9005 13.2138C16.5843 13.4121 16.4105 13.761 16.4571 14.1355V17.9621C16.5038 18.4638 16.9226 18.8371 17.4255 18.8371ZM7.5893 17.9621C7.54263 18.4638 7.1238 18.8371 6.62097 18.8371C6.1193 18.8371 5.6993 18.4638 5.6538 17.9621V9.90047C5.6188 9.53763 5.79263 9.17713 6.1088 8.9788C6.42263 8.78047 6.82047 8.78047 7.13547 8.9788C7.4493 9.17713 7.62547 9.53763 7.5893 9.90047V17.9621Z" fill="#222222"/>
</svg>
