<svg width="24" height="24" viewBox="0 0 24 24" fill="none" xmlns="http://www.w3.org/2000/svg">
<path d="M8.65726 22.2355V18.6682C8.65726 17.7576 9.40089 17.0193 10.3182 17.0193H13.6714C14.1119 17.0193 14.5344 17.1931 14.8459 17.5023C15.1573 17.8115 15.3323 18.2309 15.3323 18.6682V22.2355C15.3296 22.6141 15.4791 22.9782 15.7478 23.2469C16.0165 23.5155 16.3821 23.6666 16.7635 23.6666H19.0512C20.1196 23.6694 21.1452 23.25 21.9017 22.5009C22.6582 21.7519 23.0834 20.7348 23.0834 19.6741V9.51131C23.0833 8.65452 22.7008 7.8418 22.0387 7.29209L14.2564 1.12183C12.9026 0.0399683 10.963 0.0748988 9.64964 1.20479L2.04487 7.29209C1.35155 7.82559 0.937165 8.64072 0.916687 9.51131V19.6637C0.916687 21.8745 2.72197 23.6666 4.94889 23.6666H7.18436C7.97645 23.6667 8.62018 23.0322 8.62592 22.2459L8.65726 22.2355Z" fill="#222"/>
</svg>
