<svg width="20" height="24" viewBox="0 0 20 24" fill="none" xmlns="http://www.w3.org/2000/svg">
<path fill-rule="evenodd" clip-rule="evenodd" d="M17.8249 8.26237C17.8249 9.72762 18.2122 10.5913 19.0644 11.5865C19.7103 12.3197 19.9166 13.2609 19.9166 14.282C19.9166 15.3019 19.5816 16.2701 18.9102 17.0562C18.0313 17.9986 16.7918 18.6002 15.5268 18.7048C13.6936 18.8611 11.8592 18.9927 10.0006 18.9927C8.14071 18.9927 6.30754 18.9139 4.47436 18.7048C3.20818 18.6002 1.96867 17.9986 1.09092 17.0562C0.419569 16.2701 0.083313 15.3019 0.083313 14.282C0.083313 13.2609 0.290864 12.3197 0.935549 11.5865C1.81445 10.5913 2.17622 9.72762 2.17622 8.26237V7.76533C2.17622 5.80304 2.66553 4.51992 3.67314 3.26382C5.17122 1.43196 7.57256 0.333313 9.94838 0.333313H10.0527C12.4796 0.333313 14.9586 1.48484 16.4312 3.39542C17.3866 4.62567 17.8249 5.85474 17.8249 7.76533V8.26237ZM6.58593 21.4043C6.58593 20.8168 7.1251 20.5477 7.62369 20.4325C8.20692 20.3092 11.7608 20.3092 12.344 20.4325C12.8426 20.5477 13.3818 20.8168 13.3818 21.4043C13.3528 21.9636 13.0247 22.4595 12.5713 22.7744C11.9834 23.2326 11.2935 23.5229 10.5723 23.6274C10.1734 23.6791 9.78153 23.6803 9.39657 23.6274C8.6742 23.5229 7.9843 23.2326 7.39759 22.7732C6.94306 22.4595 6.61492 21.9636 6.58593 21.4043Z" fill="#222222"/>
</svg>
