<svg width="24" height="24" viewBox="0 0 24 24" fill="none" xmlns="http://www.w3.org/2000/svg">
<path d="M23.0079 1.01229C22.4243 0.413344 21.5607 0.190206 20.7553 0.425088L1.97598 5.88609C1.12629 6.12215 0.524048 6.79978 0.361815 7.66062C0.19608 8.53673 0.774984 9.6489 1.53129 10.114L7.4032 13.7229C8.00544 14.0929 8.78276 14.0001 9.28113 13.4974L16.0051 6.73167C16.3435 6.37934 16.9038 6.37934 17.2422 6.73167C17.5807 7.07224 17.5807 7.62422 17.2422 7.97654L10.5066 14.7435C10.0071 15.245 9.91372 16.0259 10.2814 16.6319L13.8692 22.5627C14.2893 23.2673 15.013 23.6666 15.8066 23.6666C15.9 23.6666 16.0051 23.6666 16.0984 23.6549C17.0088 23.5375 17.7324 22.915 18.0009 22.0342L23.5681 3.2789C23.8132 2.4803 23.5915 1.61124 23.0079 1.01229" fill="#130F26"/>
</svg>
