<svg width="16" height="16" viewBox="0 0 16 16" fill="none" xmlns="http://www.w3.org/2000/svg">
<path fill-rule="evenodd" clip-rule="evenodd" d="M14.7218 9.26391C15.008 9.41591 15.2287 9.65591 15.384 9.8959C15.6865 10.3919 15.662 10.9999 15.3677 11.5359L14.7954 12.4959C14.4929 13.0079 13.9288 13.3279 13.3483 13.3279C13.0622 13.3279 12.7433 13.2479 12.4817 13.0879C12.2691 12.9519 12.0239 12.9039 11.7623 12.9039C10.9529 12.9039 10.2743 13.5679 10.2498 14.3599C10.2498 15.2799 9.49763 15.9998 8.55744 15.9998H7.44556C6.49719 15.9998 5.74504 15.2799 5.74504 14.3599C5.72869 13.5679 5.05011 12.9039 4.24073 12.9039C3.97094 12.9039 3.72567 12.9519 3.52128 13.0879C3.25966 13.2479 2.93264 13.3279 2.65467 13.3279C2.06603 13.3279 1.50191 13.0079 1.19941 12.4959L0.635299 11.5359C0.332803 11.0159 0.316451 10.3919 0.618948 9.8959C0.749757 9.65591 0.995025 9.41591 1.27299 9.26391C1.50191 9.15191 1.64907 8.96791 1.78806 8.75191C2.19683 8.06392 1.95157 7.15993 1.25664 6.75193C0.447261 6.29594 0.185642 5.27995 0.65165 4.48796L1.19941 3.54397C1.6736 2.75197 2.68737 2.47198 3.50493 2.93597C4.2162 3.31997 5.14004 3.06397 5.557 2.38398C5.68781 2.15998 5.76139 1.91998 5.74504 1.67998C5.72869 1.36799 5.81862 1.07199 5.97395 0.831992C6.27645 0.335997 6.82421 0.0159998 7.42103 0H8.57379C9.17878 0 9.72654 0.335997 10.029 0.831992C10.1762 1.07199 10.2743 1.36799 10.2498 1.67998C10.2334 1.91998 10.307 2.15998 10.4378 2.38398C10.8548 3.06397 11.7786 3.31997 12.4981 2.93597C13.3074 2.47198 14.3294 2.75197 14.7954 3.54397L15.3432 4.48796C15.8174 5.27995 15.5557 6.29594 14.7382 6.75193C14.0433 7.15993 13.798 8.06392 14.2149 8.75191C14.3457 8.96791 14.4929 9.15191 14.7218 9.26391ZM5.6878 8.00796C5.6878 9.26395 6.72609 10.2639 8.00966 10.2639C9.29323 10.2639 10.307 9.26395 10.307 8.00796C10.307 6.75197 9.29323 5.74398 8.00966 5.74398C6.72609 5.74398 5.6878 6.75197 5.6878 8.00796Z" fill="#222222"/>
</svg>
